# xmcd
#
# Track frame offsets: 
#        180
#        15300
#        28795
#        50272
#        81732
#        101257
#        115200
#        137892
#        154020
#        167127
#        182395
#        197707
#        210730
#        221920
#        234135
#        250067
#        257942
#        274920
#        287407
#        301190
#        321255
#        336955
#
# Disc length: 4632 seconds
#
# Revision: 0
# Processed by: cddbd v1.4PL0 Copyright (c) Steve Scherf et al.
# Submitted via: ExactAudioCopy v0.90a11
#
DISCID=39121616
DTITLE=Mississippi Fred McDowell - Good Morning Little School Girl
DYEAR=1900
DGENRE=
TTITLE0=Good Morning Little Schoolgirl
TTITLE1=Little Girl, Little Girl, How Old Are You
TTITLE2=Fred's Rambling Blues
TTITLE3=Don't Look for Me on a Sunday
TTITLE4=I Walked All the Way from East St. Louis
TTITLE5=Red Cross Store Blues
TTITLE6=Gravel Road Blues
TTITLE7=Where Were You When the Rooster Crowed 'Fore Day
TTITLE8=Drop Down Mama
TTITLE9=I Looked at the Sun
TTITLE10=Early This Morning (Write Me a Few of Your Lines)
TTITLE11=Keep Your Lamp Trimmed and Burning
TTITLE12=Get Right Church
TTITLE13=I'm Going over the Hill
TTITLE14=Amazing Grace
TTITLE15=I Wish I Was in Heaven Sitting Down
TTITLE16=You Gotta Move
TTITLE17=It's a Blessing
TTITLE18=Bye and Bye
TTITLE19=I'm So Glad, Got Good Religion
TTITLE20=Look Way Down That Lonesome Road
TTITLE21=When the Saints Go Marching In
EXTD=
EXTT0=
EXTT1=
EXTT2=
EXTT3=
EXTT4=
EXTT5=
EXTT6=
EXTT7=
EXTT8=
EXTT9=
EXTT10=
EXTT11=
EXTT12=
EXTT13=
EXTT14=
EXTT15=
EXTT16=
EXTT17=
EXTT18=
EXTT19=
EXTT20=
EXTT21=
PLAYORDER=
